<svg width="24" height="24" viewBox="0 0 24 24" fill="none" xmlns="http://www.w3.org/2000/svg">
<path d="M11.7809 19.8548C12.374 19.8548 12.863 20.3038 12.9256 20.8808L12.9323 21.0063V22.848C12.9323 23.4845 12.4169 24 11.7809 24C11.1873 24 10.6987 23.551 10.6361 22.9736L10.6294 22.848V21.0063C10.6294 20.3703 11.1449 19.8548 11.7809 19.8548ZM6.38139 17.6191C6.79901 18.0358 6.82884 18.6945 6.47088 19.1461L6.38139 19.2464L5.07861 20.5497C4.62939 20.999 3.9 20.999 3.45026 20.5497C3.03265 20.1326 3.00327 19.4735 3.36087 19.0217L3.45026 18.9214L4.75304 17.6191C5.20278 17.1689 5.93165 17.1689 6.38139 17.6191ZM18.8082 17.6191L20.111 18.9219C20.5607 19.3706 20.5607 20.1005 20.111 20.5497C19.6612 20.999 18.9323 20.999 18.4826 20.5497L17.1798 19.247C16.7301 18.7972 16.7301 18.0683 17.1798 17.6191C17.6296 17.1699 18.359 17.1699 18.8082 17.6191ZM11.7809 6.31774C15.0344 6.31774 17.6823 8.96505 17.6823 12.2197C17.6823 15.4743 15.0344 18.1216 11.7809 18.1216C8.52678 18.1216 5.87948 15.4737 5.87948 12.2197C5.87948 8.96557 8.52678 6.31774 11.7809 6.31774ZM22.4103 11.0677C23.0463 11.0677 23.5617 11.5831 23.5617 12.2191C23.5617 12.8551 23.0463 13.3701 22.4103 13.3701H20.568C19.932 13.3701 19.4165 12.8551 19.4165 12.2191C19.4165 11.5831 19.932 11.0677 20.568 11.0677H22.4103ZM2.99322 11.0677C3.62922 11.0677 4.1447 11.5831 4.1447 12.2191C4.1447 12.8127 3.69566 13.3009 3.11912 13.3633L2.99374 13.3701H1.15148C0.515478 13.3701 0 12.8551 0 12.2191C0 11.6255 0.449039 11.1369 1.026 11.0744L1.15148 11.0677H2.99322ZM4.97817 3.79956L5.07861 3.88905L6.38139 5.19131C6.83113 5.64105 6.83113 6.36992 6.38139 6.81965C5.96378 7.23775 5.30548 7.26762 4.85349 6.90925L4.75304 6.81965L3.45026 5.51687C3.00052 5.06765 3.00052 4.33826 3.45026 3.88905C3.86788 3.47143 4.52617 3.4416 4.97817 3.79956ZM20.111 3.88852C20.5607 4.33826 20.5607 5.06765 20.111 5.51687L18.8082 6.81965C18.359 7.26939 17.6301 7.26939 17.1798 6.81965C16.7306 6.36992 16.7306 5.64105 17.1798 5.19131L18.4826 3.88852C18.9318 3.43931 19.6612 3.43931 20.111 3.88852ZM11.7809 0.438263C12.4169 0.438263 12.9323 0.953741 12.9323 1.58974V3.432C12.9323 4.06748 12.4163 4.58296 11.7809 4.58296C11.1449 4.58296 10.6294 4.06748 10.6294 3.432V1.58974C10.6294 0.953741 11.1449 0.438263 11.7809 0.438263Z" fill="white"/>
</svg>
